<!-- icon666.com - MILLIONS OF FREE VECTOR ICONS --><svg version="1.1" id="Layer_1" xmlns="http://www.w3.org/2000/svg" xmlns:xlink="http://www.w3.org/1999/xlink" x="0px" y="0px" viewBox="0 0 511.982 511.982" style="enable-background:new 0 0 511.982 511.982;" xml:space="preserve"><polygon style="fill:#ED5564;" points="445.984,121.296 388.486,94.797 357.988,111.796 323.988,175.466 310.489,186.122 292.99,153.826 262.99,132.796 226.992,139.889 173.994,164.498 140.917,133.796 81.497,115.296 42.654,137.296 27.499,157.232 23.999,188.294 23.999,210.793 475.984,200.293 482.484,168.763 "></polygon><rect x="12.001" y="207.292" style="fill:#FFCE54;" width="486.98" height="230.85"></rect><path d="M379.3,137.608c4.483,3.828,11.218,3.296,15.046-1.188c3.828-4.469,3.297-11.203-1.188-15.031 c-4.484-3.828-11.218-3.297-15.03,1.188C374.3,127.046,374.831,133.78,379.3,137.608z"></path><path d="M411.752,165.326c4.484,3.843,11.219,3.312,15.047-1.172c3.827-4.484,3.296-11.203-1.188-15.046 c-4.469-3.812-11.203-3.281-15.031,1.188C406.752,154.779,407.283,161.513,411.752,165.326z"></path><path d="M368.221,183.357c4.484,3.812,11.219,3.296,15.031-1.188c3.827-4.469,3.312-11.219-1.172-15.031 c-4.484-3.828-11.219-3.312-15.046,1.188C363.222,172.794,363.738,179.529,368.221,183.357z"></path><path d="M444.188,193.044c4.483,3.844,11.218,3.312,15.046-1.172s3.297-11.203-1.188-15.046c-4.469-3.812-11.203-3.281-15.03,1.188 C439.188,182.482,439.72,189.231,444.188,193.044z"></path><path d="M253.585,183.654c4.516,3.765,11.249,3.171,15.03-1.344c3.781-4.516,3.172-11.234-1.344-15.015s-11.249-3.188-15.015,1.328 C248.475,173.138,249.069,179.872,253.585,183.654z"></path><path d="M67.075,159.701c0.891-5.828-3.125-11.265-8.937-12.156c-5.828-0.875-11.266,3.125-12.156,8.953 c-0.875,5.828,3.125,11.266,8.953,12.141C60.763,169.529,66.2,165.513,67.075,159.701z"></path><path d="M97.137,175.044c5.828,0.891,11.266-3.125,12.141-8.937c0.891-5.828-3.109-11.266-8.938-12.156 c-5.828-0.875-11.265,3.125-12.155,8.953C87.309,168.732,91.309,174.169,97.137,175.044z"></path><path d="M139.323,181.45c5.812,0.875,11.25-3.125,12.141-8.938c0.891-5.828-3.125-11.265-8.938-12.156 c-5.828-0.875-11.266,3.125-12.156,8.937C129.495,175.138,133.495,180.575,139.323,181.45z"></path><path d="M490.109,196.028c5.046-15.328,2.593-29.796-4.781-43.467c5.109,0.734,9.39,0.921,12.374,0.921 c2.656,0,4.281-0.156,4.562-0.187l0,0c2.656-0.25,5.233-1.5,7.093-3.688c3.828-4.469,3.297-11.203-1.172-15.031 c-2.28-1.938-5.14-2.75-7.905-2.5l0,0c-0.219,0-20.655,1.562-39.968-11.031c15.219-22.656,37.405-27.875,38.452-28.125l0,0 c2.203-0.484,4.266-1.64,5.844-3.484c3.827-4.484,3.296-11.203-1.188-15.046c-2.609-2.234-6-2.969-9.141-2.312l0,0 c-1.375,0.281-29.624,6.593-49.748,34.296c-12.312-16.109-13.734-33.483-13.75-33.64l0,0c-0.172-2.781-1.421-5.5-3.718-7.453 c-4.469-3.828-11.203-3.297-15.031,1.172c-1.875,2.188-2.703,4.938-2.531,7.594l0,0c0.031,0.609,0.5,7.234,3.328,16.5 c-6.75-2.391-13.5-3.719-20.234-3.719c-15.718,0.016-31.295,7.187-46.342,24.733c-14.469,16.875-26.14,40.671-32.265,64.873 c-1.641-17.109-7.593-32.015-19.14-41.702c-9.906-8.312-22.875-11.922-37.187-11.922l0,0c-25.858,0-56.076,11.766-80.45,28.765 c-5.031-11.938-14.078-20.656-25.796-27.031c7.265-3.906,11.265-7.75,11.64-8.125h-0.016c1.594-1.562,2.719-3.625,3.078-6 c0.875-5.812-3.125-11.25-8.953-12.14c-3.453-0.516-6.765,0.672-9.077,2.953l0,0l0.078-0.078c-0.047,0.047-3.844,3.578-10.828,6.546 c-6.969,2.969-14.516,4.344-22.53,4.109c0.172-23.733,10.921-32.108,11.452-32.483c-0.125,0.094-0.203,0.125-0.203,0.125l0,0 c2.375-1.625,4.094-4.156,4.562-7.218c0.875-5.828-3.125-11.265-8.952-12.156c-2.766-0.406-5.438,0.281-7.578,1.734v-0.016 c-1.203,0.812-7.453,5.375-12.797,15.593c-4.562,8.688-7.125,18.75-7.703,30.062c-16.419-6.81-23.169-19.168-23.497-19.809 l0.031,0.062v0.016c-1.516-2.953-4.375-5.188-7.906-5.719c-5.827-0.891-11.265,3.109-12.14,8.953 c-0.359,2.281,0.062,4.5,1.031,6.406v0.016c0.266,0.516,3.281,6.328,9.828,13.093c-24.531,4.641-42.64,19.765-47.827,53.514 c-1.531,10-1.812,20.89-0.953,32.046H0v234.664c0,11.781,9.546,21.328,21.327,21.328h469.329c11.78,0,21.326-9.547,21.326-21.328 V196.028H490.109z M490.656,238.699H21.327v-21.343h10.671c0,5.906,4.781,10.672,10.672,10.672s10.656-4.766,10.656-10.672h21.343 c0,5.906,4.766,10.672,10.656,10.672s10.671-4.766,10.671-10.672h21.328c0,5.906,4.781,10.672,10.671,10.672 c5.891,0,10.672-4.766,10.672-10.672h21.327c0,5.906,4.781,10.672,10.672,10.672s10.656-4.766,10.656-10.672h21.343 c0,5.906,4.766,10.672,10.656,10.672s10.671-4.766,10.671-10.672h21.328c0,5.906,4.78,10.672,10.671,10.672 c5.89,0,10.671-4.766,10.671-10.672h21.328c0,5.906,4.781,10.672,10.672,10.672s10.655-4.766,10.655-10.672h21.343 c0,5.906,4.766,10.672,10.656,10.672s10.672-4.766,10.672-10.672h21.327c0,5.906,4.781,10.672,10.671,10.672 c5.891,0,10.672-4.766,10.672-10.672h21.328c0,5.906,4.781,10.672,10.672,10.672c5.89,0,10.655-4.766,10.655-10.672h21.343 c0,5.906,4.766,10.672,10.656,10.672s10.672-4.766,10.672-10.672h10.672L490.656,238.699L490.656,238.699z M362.457,125.452 c9.952-11.625,19.827-17.281,30.139-17.281c12.672,0,28.594,8.156,47.343,24.218c16.671,14.296,26.843,27.374,30.218,38.874 c1.641,5.578,2.688,13.687-3.219,24.765H415.69c-0.359-0.406-0.734-0.797-1.156-1.172c-4.469-3.812-11.203-3.281-15.031,1.172 h-67.686c0.094-0.641,0.188-1.297,0.281-1.938C336.082,168.95,347.707,142.639,362.457,125.452z M208.149,157.857 c17.437-8.843,35.015-13.718,49.514-13.718c10.093,0,17.999,2.344,23.468,6.938c4.906,4.093,8.375,10.484,10.297,18.952 c1.719,7.484,2.141,16.359,1.297,26h-65.811c0.297-3.359-1-6.812-3.781-9.141c-4.516-3.781-11.249-3.187-15.03,1.344 c-1.891,2.25-2.688,5.078-2.438,7.797h-26.312c0.438-2.141,0.828-4.266,1.156-6.359c0.797-5.25,1.172-10.171,1.141-14.781 C189.587,168.545,198.649,162.67,208.149,157.857z M34.201,167.217c2.172-14.125,6.953-23.718,14.625-29.343 c6.984-5.109,17.452-7.703,31.108-7.703h0.016c6.969,0,14.952,0.672,23.702,2.016c21.733,3.328,37.265,9.078,46.202,17.046 c5.765,5.156,13.03,14.625,9.562,37.202c-0.484,3.125-1.141,6.328-1.969,9.594H79.512c-1.609-1.953-3.922-3.359-6.625-3.781 c-3.859-0.578-7.531,0.984-9.844,3.781H33.529C32.654,185.919,32.842,176.091,34.201,167.217z M21.327,430.692V260.026h469.329 v170.666H21.327z"></path><path d="M42.67,270.698c-5.891,0-10.672,4.781-10.672,10.655v127.996c0,5.905,4.781,10.671,10.672,10.671 s10.656-4.766,10.656-10.671V281.353C53.326,275.479,48.56,270.698,42.67,270.698z"></path></svg>